<?xml version="1.0" encoding="UTF-8"?>
<svg version="1.1" xmlns="http://www.w3.org/2000/svg" width="256" height="256">
<path d="M0 0 C84.48 0 168.96 0 256 0 C256 84.48 256 168.96 256 256 C171.52 256 87.04 256 0 256 C0 171.52 0 87.04 0 0 Z " fill="#FEFEFE" transform="translate(0,0)"/>
<path d="M0 0 C3 2.5 3 2.5 5 5 C1.267708 12.02632244 -2.6717458 17.14940922 -9 22 C-7.1746875 22.3403125 -7.1746875 22.3403125 -5.3125 22.6875 C-1.01475092 23.76003561 1.18010228 25.51659694 4 29 C6.45596117 33.33301721 6.99838328 37.13206581 6 42 C4.25734068 46.32547077 2.05376689 50.42056747 -0.15234375 54.5234375 C-2.03984251 57.84290081 -2.03984251 57.84290081 -3 61 C4.92 59.02 12.84 57.04 21 55 C20.67 54.67 20.34 54.34 20 54 C19.5625 51.6875 19.5625 51.6875 20 49 C24.97747398 45.11773376 30.67980686 42.65618376 36.375 40 C38.42910198 39.02755382 40.4824633 38.05354192 42.53515625 37.078125 C44.12481201 36.32305664 44.12481201 36.32305664 45.74658203 35.55273438 C51.12004008 32.98818438 56.47254733 30.38353901 61.8125 27.75 C62.78300293 27.27949219 63.75350586 26.80898437 64.75341797 26.32421875 C70.4614165 23.49435999 75.64865769 20.33198615 80.79077148 16.56713867 C85.87399911 12.96129956 90.58727676 10.10520141 97 11 C97.99 11.66 98.98 12.32 100 13 C100.11572769 15.89319213 100.1202363 17.39492218 99 20 C95.07733811 23.3759192 90.20946883 25.4282511 85.5625 27.625 C75.29710372 32.6004903 67.72589352 39.22897911 59.70654297 47.29199219 C58.28825027 48.7115023 56.83745106 50.09844415 55.37890625 51.4765625 C48.82930074 57.71094636 43.4254254 64.79606699 38 72 C37.37158203 72.82129395 37.37158203 72.82129395 36.73046875 73.65917969 C21.08959022 93.00578295 21.08959022 93.00578295 13 115 C14.0415625 114.97679687 15.083125 114.95359375 16.15625 114.9296875 C26.17839741 114.7766057 36.14235961 114.98620713 46 117 C48 119 48 119 48.25 121.5 C48 124 48 124 46 126 C40.94638746 126.57852803 35.83573686 126.4023582 30.9375 125 C24.23462448 123.12593072 18.33908906 122.9248521 12.125 126.3125 C9.93876597 127.65570283 7.92286365 129.06073048 5.90625 130.6484375 C3.44073103 132.39653087 1.96003847 132.38947875 -1 132 C-3 130 -3 130 -3.3671875 127.484375 C-2.85647492 122.63803857 -1.08969164 118.68017115 0.875 114.25 C1.28210205 113.3226001 1.6892041 112.3952002 2.10864258 111.43969727 C11.59021953 90.23972435 24.20347896 70.97823949 39.671875 53.65234375 C42.0701453 51.03778514 42.0701453 51.03778514 44 48 C37.4 50.97 30.8 53.94 24 57 C24.495 59.475 24.495 59.475 25 62 C22.68293852 65.47559222 22.07238585 65.54442046 18.1875 66.5 C17.20007813 66.75007813 16.21265625 67.00015625 15.1953125 67.2578125 C13.06960359 67.75155907 10.9392286 68.22564086 8.8046875 68.6796875 C-2.71644063 71.15048365 -13.43672737 74.26031328 -21.1875 83.625 C-30.40697431 94.29914616 -40.60523899 102.75942582 -52 111 C-52.98516602 111.72026367 -52.98516602 111.72026367 -53.99023438 112.45507812 C-65.13399118 120.50652831 -65.13399118 120.50652831 -71.25 120.75 C-75 120 -75 120 -77 117 C-77.55621816 112.82836378 -77.04267925 110.13860384 -74.49609375 106.74609375 C-61.64995549 91.75334231 -44.42334004 80.4150761 -26.953125 71.43359375 C-15.80138544 65.63261121 -8.27451225 51.57279523 -4 40 C-3.75348079 36.22317934 -3.75348079 36.22317934 -4 33 C-15.89071885 32.38963991 -26.19541559 34.98014963 -36 42 C-41.35118431 47.08640749 -44.56934942 53.29246413 -47.875 59.8125 C-48.39167236 60.81555176 -48.90834473 61.81860352 -49.44067383 62.85205078 C-53.4432288 70.7029053 -57.10578751 78.6744523 -60.57421875 86.7734375 C-62 90 -62 90 -63 91 C-69.22333572 91.57623479 -69.22333572 91.57623479 -71.9375 89.5625 C-77.83470206 75.3398362 -68.46687817 52.2678218 -62.95703125 38.90625 C-50.08870583 9.01694171 -50.08870583 9.01694171 -43 3 C-40.02602384 3.27036147 -39.14553974 3.85446026 -37 6 C-37.32874581 10.23246419 -38.48347656 13.39517701 -40.51171875 17.08984375 C-41.01985107 18.03230957 -41.5279834 18.97477539 -42.05151367 19.94580078 C-42.59138916 20.93306152 -43.13126465 21.92032227 -43.6875 22.9375 C-52.08066935 38.30249823 -52.08066935 38.30249823 -57 55 C-56.01 52.69 -55.02 50.38 -54 48 C-53.34 48 -52.68 48 -52 48 C-51.78601563 47.19304687 -51.57203125 46.38609375 -51.3515625 45.5546875 C-44.92352301 28.64857207 -28.85493482 10.37845909 -12.91796875 1.84765625 C-8.67993141 -0.02536636 -4.58938397 -0.83930368 0 0 Z " fill="#601BEB" transform="translate(137,67)"/>
<path d="M0 0 C1 1 1 1 1.2734375 4.0859375 C0.9635741 8.52141078 -0.34134806 11.7569616 -2.375 15.625 C-2.73803223 16.31867676 -3.10106445 17.01235352 -3.47509766 17.72705078 C-4.61478601 19.84043466 -5.79329209 21.92422266 -7 24 C-7.35320312 24.60779297 -7.70640625 25.21558594 -8.0703125 25.84179688 C-13.7843083 35.248727 -20.67820067 39.61430407 -30.3125 44.5234375 C-40.55413035 49.77566432 -49.90452638 56.98890575 -59 64 C-59.33 62.68 -59.66 61.36 -60 60 C-61.32 59.67 -62.64 59.34 -64 59 C-63.23268555 58.94199219 -62.46537109 58.88398438 -61.67480469 58.82421875 C-58.83296496 58.25232378 -58.83296496 58.25232378 -57.47363281 55.76953125 C-57.05436523 54.79371094 -56.63509766 53.81789062 -56.203125 52.8125 C-55.72399658 51.72888184 -55.24486816 50.64526367 -54.7512207 49.52880859 C-54.25581787 48.36430176 -53.76041504 47.19979492 -53.25 46 C-52.18926096 43.61582237 -51.12544944 41.23300938 -50.05859375 38.8515625 C-49.53894043 37.68141602 -49.01928711 36.51126953 -48.48388672 35.30566406 C-41.88350836 20.6019584 -36.19200833 9.39737046 -20.5546875 2.96484375 C-13.55737903 0.32212939 -7.46615192 -0.55544037 0 0 Z " fill="#FCFBFD" transform="translate(133,99)"/>
<path d="M0 0 C0.99 0.495 0.99 0.495 2 1 C1.5875 1.38929687 1.175 1.77859375 0.75 2.1796875 C-4.59450319 7.35717497 -10.42868915 13.14345258 -13.93481445 19.765625 C-15.72859213 22.90834659 -17.09559959 24.6376781 -20.515625 26.0078125 C-23.64232215 26.79466344 -26.76627941 27.41857845 -29.9375 28 C-45.44863923 31.30981518 -55.74498517 35.46200162 -66 48 C-76.23760237 59.23965154 -95.02485944 78.85102724 -111 80 C-111.66 79.34 -112.32 78.68 -113 78 C-113 77.01 -113 76.02 -113 75 C-114.65 74.67 -116.3 74.34 -118 74 C-118 73.67 -118 73.34 -118 73 C-117.46375 72.98324219 -116.9275 72.96648437 -116.375 72.94921875 C-97.10461547 70.82567309 -76.5089314 48.39191479 -64 35 C-63.360625 34.113125 -62.72125 33.22625 -62.0625 32.3125 C-53.32163492 22.51213612 -37.15143442 20.68322814 -25 18 C-23.66525598 17.67236102 -22.33124204 17.34158968 -21 17 C-20.20046862 13.71303767 -19.90341064 12.28976808 -21 9 C-20.154375 8.68546875 -19.30875 8.3709375 -18.4375 8.046875 C-10.73566906 5.15263831 -10.73566906 5.15263831 -3.3125 1.625 C-2.219375 1.08875 -1.12625 0.5525 0 0 Z " fill="#ACB2C1" transform="translate(181,114)"/>
<path d="M0 0 C-0.29711914 1.8815918 -0.29711914 1.8815918 -1 4 C-3.47703427 5.44568185 -5.83491179 6.64433773 -8.4375 7.8125 C-20.79312826 13.7035284 -30.19910274 21.58157678 -40 31 C-40.82886719 31.78761719 -41.65773437 32.57523438 -42.51171875 33.38671875 C-59.25104181 49.65862616 -71.97934586 69.5647167 -83 90 C-80.69 90 -78.38 90 -76 90 C-76 90.33 -76 90.66 -76 91 C-80.62 91.33 -85.24 91.66 -90 92 C-88.83059602 86.15298012 -86.53624826 81.93063127 -83.6875 76.75 C-83.15278076 75.77506592 -82.61806152 74.80013184 -82.06713867 73.7956543 C-72.46569774 56.60858337 -60.33388729 41.43528044 -47 27 C-46.33871094 26.2265625 -45.67742187 25.453125 -44.99609375 24.65625 C-39.95226283 19.06688139 -34.66800636 16.03144934 -27.95288086 12.88720703 C-22.96845175 10.54842723 -18.62549895 7.81013054 -14.1796875 4.546875 C-5.28122449 -1.76816327 -5.28122449 -1.76816327 0 0 Z " fill="#AEB5C1" transform="translate(239,91)"/>
<path d="M0 0 C1 1 1 1 1.0625 3.5625 C1.041875 4.366875 1.02125 5.17125 1 6 C0.175 6.12375 -0.65 6.2475 -1.5 6.375 C-8.69926796 7.66058356 -14.94516557 9.54623261 -21.5 12.75 C-22.15742187 13.06066406 -22.81484375 13.37132813 -23.4921875 13.69140625 C-31.50082965 17.79379233 -35.73790332 24.66627897 -39.9375 32.375 C-40.36716064 33.1486792 -40.79682129 33.9223584 -41.23950195 34.71948242 C-44.51245779 40.75137807 -47.20301456 46.92732497 -49.40405273 53.42919922 C-51.40117177 58.87153159 -54.06982776 60.97639496 -59 64 C-59.33 62.68 -59.66 61.36 -60 60 C-61.32 59.67 -62.64 59.34 -64 59 C-63.23268555 58.94199219 -62.46537109 58.88398438 -61.67480469 58.82421875 C-58.83296496 58.25232378 -58.83296496 58.25232378 -57.47363281 55.76953125 C-57.05436523 54.79371094 -56.63509766 53.81789062 -56.203125 52.8125 C-55.72399658 51.72888184 -55.24486816 50.64526367 -54.7512207 49.52880859 C-54.25581787 48.36430176 -53.76041504 47.19979492 -53.25 46 C-52.18926096 43.61582237 -51.12544944 41.23300938 -50.05859375 38.8515625 C-49.53894043 37.68141602 -49.01928711 36.51126953 -48.48388672 35.30566406 C-41.88350836 20.6019584 -36.19200833 9.39737046 -20.5546875 2.96484375 C-13.55737903 0.32212939 -7.46615192 -0.55544037 0 0 Z " fill="#AFB3C3" transform="translate(133,99)"/>
<path d="M0 0 C0.66 0.33 1.32 0.66 2 1 C1.38125 1.58394531 1.38125 1.58394531 0.75 2.1796875 C-2.82235456 5.64040598 -6.04640885 9.21530629 -9.125 13.125 C-10.13626953 14.39537109 -10.13626953 14.39537109 -11.16796875 15.69140625 C-11.77253906 16.45324219 -12.37710938 17.21507812 -13 18 C-16.00215937 21.77194383 -17.00674968 22.85345487 -21.8125 23.5625 C-22.57949219 23.60503906 -23.34648437 23.64757812 -24.13671875 23.69140625 C-28.58206398 24.17050894 -32.84216487 25.39030894 -37.15161133 26.54125977 C-41.43804808 27.66899143 -45.61192072 28.45291479 -50 29 C-48.91108046 26.31399847 -47.89243886 24.45720022 -45.25390625 23.10546875 C-38.67003539 20.84641581 -31.78532228 19.5078494 -25 18 C-23.66526515 17.67232369 -22.33122157 17.34166946 -21 17 C-20.20046862 13.71303767 -19.90341064 12.28976808 -21 9 C-20.154375 8.68546875 -19.30875 8.3709375 -18.4375 8.046875 C-10.73566906 5.15263831 -10.73566906 5.15263831 -3.3125 1.625 C-2.219375 1.08875 -1.12625 0.5525 0 0 Z " fill="#F6F3FB" transform="translate(181,114)"/>
<path d="M0 0 C-0.50748779 0.48654053 -1.01497559 0.97308105 -1.5378418 1.47436523 C-12.76123298 12.2971474 -23.05078192 23.21850581 -32 36 C-32.45697266 36.64952637 -32.91394531 37.29905273 -33.38476562 37.96826172 C-43.61996108 52.24451707 -43.61996108 52.24451707 -51 68 C-52.485 68.495 -52.485 68.495 -54 69 C-53.0721871 63.25379209 -50.46610397 58.80306939 -47.6875 53.75 C-47.15278076 52.77506592 -46.61806152 51.80013184 -46.06713867 50.7956543 C-14.91339994 -4.97113331 -14.91339994 -4.97113331 0 0 Z " fill="#F4F2FA" transform="translate(203,114)"/>
<path d="M0 0 C1.32 0 2.64 0 4 0 C2.41485751 3.84963176 -0.15775478 6.54231144 -3.0625 9.4375 C-3.84065063 10.21323364 -3.84065063 10.21323364 -4.63452148 11.00463867 C-30.4183557 36.02317358 -30.4183557 36.02317358 -44 37 C-44.66 36.34 -45.32 35.68 -46 35 C-46 34.01 -46 33.02 -46 32 C-47.65 31.67 -49.3 31.34 -51 31 C-51 30.67 -51 30.34 -51 30 C-45.555 29.01 -45.555 29.01 -40 28 C-40.99 30.475 -40.99 30.475 -42 33 C-30.55932521 26.69140096 -20.44859929 19.17813338 -10.5 10.75 C-9.91234863 10.2547583 -9.32469727 9.7595166 -8.71923828 9.24926758 C-6.08730215 6.98467573 -3.94964902 4.93323022 -1.84375 2.140625 C-0.93109375 1.08101562 -0.93109375 1.08101562 0 0 Z " fill="#AEB5C0" transform="translate(114,157)"/>
<path d="M0 0 C0.66 0.33 1.32 0.66 2 1 C-6.46623646 10.82524188 -15.73457012 18.72564815 -26.25 26.3125 C-27.09933105 26.92557007 -27.09933105 26.92557007 -27.96582031 27.55102539 C-38.47373021 35 -38.47373021 35 -42 35 C-40.62746389 29.44885394 -36.8645274 27.25713192 -32.4375 24.125 C-30.97753093 23.06165586 -29.51789314 21.99785674 -28.05859375 20.93359375 C-27.00454346 20.17344971 -27.00454346 20.17344971 -25.92919922 19.39794922 C-20.69720314 15.60670528 -15.67392714 11.63700849 -10.875 7.3125 C-7.44751874 4.2757516 -4.13424058 1.98443548 0 0 Z " fill="#F4F3FA" transform="translate(114,155)"/>
<path d="M0 0 C0.33 0.99 0.66 1.98 1 3 C0.67 3.66 0.34 4.32 0 5 C1.0725 4.34 2.145 3.68 3.25 3 C14.00084144 -2.25388947 27.75010804 2.02303154 39 4 C39 4.66 39 5.32 39 6 C31.72179696 6.12548626 31.72179696 6.12548626 28.19140625 5.51171875 C19.79021464 4.16464886 10.45948029 3.45944678 3 8 C2.113125 8.721875 1.22625 9.44375 0.3125 10.1875 C-2 12 -2 12 -6 12 C-5.39294514 7.87202695 -4.06000669 4.62561178 -2 1 C-1.34 0.67 -0.68 0.34 0 0 Z " fill="#AFB5C1" transform="translate(148,193)"/>
<path d="M0 0 C-1.52987719 4.27560415 -3.73423194 7.97908804 -6.125 11.8125 C-10.54945271 19.04248446 -14.37744694 26.48154432 -18.07568359 34.10302734 C-19.52660212 37.08074445 -21.01448033 40.03939756 -22.5 43 C-23.22703125 44.4540625 -23.22703125 44.4540625 -23.96875 45.9375 C-24.47921875 46.9584375 -24.47921875 46.9584375 -25 48 C-26.12895213 44.69097044 -25.92579757 43.05940966 -24.48046875 39.90234375 C-24.12243164 39.10965088 -23.76439453 38.31695801 -23.39550781 37.50024414 C-22.99686523 36.65453857 -22.59822266 35.80883301 -22.1875 34.9375 C-21.78241211 34.06150146 -21.37732422 33.18550293 -20.95996094 32.28295898 C-18.01215787 25.98194536 -14.93667052 19.74596329 -11.75 13.5625 C-11.35063232 12.77673584 -10.95126465 11.99097168 -10.53979492 11.18139648 C-4.64747318 0 -4.64747318 0 0 0 Z " fill="#F1EDFA" transform="translate(102,109)"/>
<path d="M0 0 C3.61572408 0.91263941 7.31974713 1.18558757 11.02734375 1.51171875 C9.58984375 3.07421875 9.58984375 3.07421875 7.02734375 4.51171875 C4.86157832 4.48424604 2.80664219 4.16675191 0.6640625 3.8515625 C-6.70604423 2.90163763 -13.50508544 2.42693718 -19.97265625 6.51171875 C-20.63265625 6.51171875 -21.29265625 6.51171875 -21.97265625 6.51171875 C-20.49824408 0.85980543 -20.49824408 0.85980543 -18.19140625 -0.66796875 C-12.33699723 -2.83245096 -5.84774079 -1.68615839 0 0 Z " fill="#EEE9F9" transform="translate(169.97265625,191.48828125)"/>
<path d="M0 0 C0.66 0.33 1.32 0.66 2 1 C2.60990371 13.80797799 2.60990371 13.80797799 -1 19 C-3.95757635 20.35293386 -6.7698627 20.79007493 -10 21 C-8.27502493 16.3970402 -6.0904129 12.06744176 -3.875 7.6875 C-3.50246094 6.94693359 -3.12992188 6.20636719 -2.74609375 5.44335938 C-1.83255194 3.62798783 -0.91652513 1.81386718 0 0 Z " fill="#F0ECFA" transform="translate(143,108)"/>
<path d="M0 0 C0 0.99 0 1.98 0 3 C-0.72590332 3.17128418 -1.45180664 3.34256836 -2.19970703 3.51904297 C-5.50881242 4.30154098 -8.81690777 5.08823028 -12.125 5.875 C-13.26710937 6.14441406 -14.40921875 6.41382813 -15.5859375 6.69140625 C-16.69453125 6.95566406 -17.803125 7.21992188 -18.9453125 7.4921875 C-19.96125488 7.73308105 -20.97719727 7.97397461 -22.02392578 8.22216797 C-25.06915467 9.01807439 -28.02577213 9.97239846 -31 11 C-31.33 9.68 -31.66 8.36 -32 7 C-9.52325898 -0.35534548 -9.52325898 -0.35534548 0 0 Z " fill="#B2B8C4" transform="translate(163,136)"/>
<path d="M0 0 C-3.94020969 3.04808674 -8.12562838 5.63912987 -12.34375 8.28125 C-14.93748151 9.91035805 -14.93748151 9.91035805 -17.0234375 11.546875 C-19.29089523 13.21385974 -21.61619089 14.47687299 -24.125 15.75 C-24.99382812 16.19859375 -25.86265625 16.6471875 -26.7578125 17.109375 C-27.86769531 17.55023438 -27.86769531 17.55023438 -29 18 C-29.66 17.67 -30.32 17.34 -31 17 C-24.58726957 11.07308248 -18.25405957 6.23146788 -10.4375 2.3125 C-9.40206055 1.7865625 -9.40206055 1.7865625 -8.34570312 1.25 C-3.39278459 -1.1309282 -3.39278459 -1.1309282 0 0 Z " fill="#F3F0FA" transform="translate(233,91)"/>
<path d="M0 0 C0.721875 0.268125 1.44375 0.53625 2.1875 0.8125 C2.57891851 4.23741198 2.32107065 5.60260327 0.4375 8.5625 C-2.63068182 11.63068182 -2.63068182 11.63068182 -5.8125 11.8125 C-8.15364367 11.53936657 -10.49000658 11.21447001 -12.8125 10.8125 C-11.16696468 8.79084232 -9.50357997 6.79546501 -7.8125 4.8125 C-6.9875 3.843125 -6.1625 2.87375 -5.3125 1.875 C-2.8125 -0.1875 -2.8125 -0.1875 0 0 Z " fill="#B2B7C4" transform="translate(139.8125,79.1875)"/>
<path d="M0 0 C0.33 0.99 0.66 1.98 1 3 C-0.27673733 5.25606996 -1.58774172 7.31721207 -3.0625 9.4375 C-6.82229385 15.01279571 -9.93538557 20.62598502 -12.7109375 26.76953125 C-14 29 -14 29 -17 30 C-16.05832956 23.95076884 -13.1029189 19.18264574 -10.1875 13.875 C-9.38602539 12.37259766 -9.38602539 12.37259766 -8.56835938 10.83984375 C-8.04435547 9.87949219 -7.52035156 8.91914063 -6.98046875 7.9296875 C-6.26733521 6.61846924 -6.26733521 6.61846924 -5.53979492 5.28076172 C-3.93551337 2.90448168 -2.38141482 1.56495722 0 0 Z " fill="#F2EEF9" transform="translate(166,153)"/>
<path d="M0 0 C0.66 0 1.32 0 2 0 C-0.4734842 10.81543089 -7.00330666 19.60396799 -14 28 C-13.41937393 24.45896036 -12.49885091 21.66228737 -10.8203125 18.49609375 C-10.38589844 17.67302734 -9.95148438 16.84996094 -9.50390625 16.00195312 C-8.82134766 14.73254883 -8.82134766 14.73254883 -8.125 13.4375 C-7.67769531 12.58736328 -7.23039062 11.73722656 -6.76953125 10.86132812 C-2.64144173 3.09832792 -2.64144173 3.09832792 0 0 Z " fill="#AFB1C7" transform="translate(100,83)"/>
<path d="M0 0 C0.66 0.33 1.32 0.66 2 1 C2.31985731 7.71700347 1.4793824 12.75726932 -1 19 C-2.32 19 -3.64 19 -5 19 C-4.07296312 16.15267245 -3.16112389 13.36015929 -1.9375 10.625 C-0.67552182 7.0914611 -0.37945893 3.73134612 0 0 Z " fill="#B3B8C5" transform="translate(143,108)"/>
<path d="M0 0 C0 0.66 0 1.32 0 2 C-6.24083785 2.11665117 -12.29742189 1.66713776 -18.5 1 C-19.4178125 0.90460938 -20.335625 0.80921875 -21.28125 0.7109375 C-23.52124265 0.47760493 -25.76077368 0.24055688 -28 0 C-28 -0.33 -28 -0.66 -28 -1 C-18.24068313 -2.21785742 -9.63305603 -1.6121712 0 0 Z " fill="#BBC0CA" transform="translate(187,197)"/>
<path d="M0 0 C-1.44865567 3.38019657 -3.08219573 5.73059668 -6 8 C-9.25 8.25 -9.25 8.25 -12 8 C-5.91304348 0 -5.91304348 0 0 0 Z " fill="#F6F3FC" transform="translate(139,82)"/>
<path d="M0 0 C0 3 0 3 -1.35546875 4.53515625 C-4.75531914 7.3695731 -7.68736476 9.69314084 -12 11 C-8.95099744 5.53720375 -5.44663822 2.98771902 0 0 Z " fill="#EAE6F5" transform="translate(128,140)"/>
<path d="M0 0 C0.66 0.33 1.32 0.66 2 1 C1.67 2.32 1.34 3.64 1 5 C0.34 5 -0.32 5 -1 5 C-1.19335938 5.62648438 -1.38671875 6.25296875 -1.5859375 6.8984375 C-1.84632812 7.71570313 -2.10671875 8.53296875 -2.375 9.375 C-2.63023438 10.18710938 -2.88546875 10.99921875 -3.1484375 11.8359375 C-4 14 -4 14 -6 16 C-3.81395349 5.53488372 -3.81395349 5.53488372 -2 1 C-1.34 0.67 -0.68 0.34 0 0 Z " fill="#D8CCF4" transform="translate(84,110)"/>
<path d="M0 0 C0.66 0.33 1.32 0.66 2 1 C1.39288519 5.12838068 0.12477683 8.40422382 -2 12 C-2.99 12.33 -3.98 12.66 -5 13 C-4.39254603 8.14036821 -2.27241033 4.2594482 0 0 Z " fill="#E6DEF8" transform="translate(154,170)"/>
<path d="M0 0 C-5.445 3.96 -5.445 3.96 -11 8 C-11.33 7.34 -11.66 6.68 -12 6 C-6.08 -1.52 -6.08 -1.52 0 0 Z " fill="#EEECF7" transform="translate(119,102)"/>
<path d="M0 0 C1.21386936 3.64160808 0.6674695 4.33165469 -0.9375 7.6875 C-1.31777344 8.49574219 -1.69804688 9.30398437 -2.08984375 10.13671875 C-2.39019531 10.75160156 -2.69054687 11.36648437 -3 12 C-3.99 12 -4.98 12 -6 12 C-5.57405412 10.55903414 -5.13373367 9.12231288 -4.6875 7.6875 C-4.44386719 6.88699219 -4.20023437 6.08648437 -3.94921875 5.26171875 C-2.95817977 2.90035427 -1.91925057 1.66120007 0 0 Z " fill="#EFEAFB" transform="translate(89,99)"/>
<path d="M0 0 C1.33998047 0.06960937 1.33998047 0.06960937 2.70703125 0.140625 C3.60808594 0.17671875 4.50914062 0.2128125 5.4375 0.25 C6.46810547 0.31960937 6.46810547 0.31960937 7.51953125 0.390625 C7.51953125 1.050625 7.51953125 1.710625 7.51953125 2.390625 C3.22953125 3.050625 -1.06046875 3.710625 -5.48046875 4.390625 C-2.48046875 0.390625 -2.48046875 0.390625 0 0 Z " fill="#F9F9FA" transform="translate(126.48046875,99.609375)"/>
<path d="M0 0 C0.66 0 1.32 0 2 0 C1.21681311 3.91593446 -0.39179858 7.36406635 -2 11 C-2.99 10.67 -3.98 10.34 -5 10 C-3.85569823 6.12697862 -2.76679902 2.99736561 0 0 Z " fill="#B5BBC6" transform="translate(100,83)"/>
<path d="M0 0 C0 0.99 0 1.98 0 3 C-4.455 3.495 -4.455 3.495 -9 4 C-9 3.34 -9 2.68 -9 2 C-9.66 1.67 -10.32 1.34 -11 1 C-7.26562152 0.12132271 -3.83225427 -0.08912219 0 0 Z " fill="#B5BCC5" transform="translate(134,102)"/>
<path d="M0 0 C0.33 0.99 0.66 1.98 1 3 C1.99 3.33 2.98 3.66 4 4 C2.35 5.32 0.7 6.64 -1 8 C-1.33 6.68 -1.66 5.36 -2 4 C-3.32 3.67 -4.64 3.34 -6 3 C-5.195625 2.87625 -4.39125 2.7525 -3.5625 2.625 C-2.716875 2.41875 -1.87125 2.2125 -1 2 C-0.67 1.34 -0.34 0.68 0 0 Z " fill="#ABA9C8" transform="translate(75,155)"/>
<path d="M0 0 C0.66 0.33 1.32 0.66 2 1 C-0.25 3.5 -0.25 3.5 -3 6 C-4.32 6 -5.64 6 -7 6 C-7 5.01 -7 4.02 -7 3 C-4.69631264 1.93347808 -2.35981813 0.93578995 0 0 Z " fill="#AFB3C5" transform="translate(173,123)"/>
<path d="M0 0 C0.66 0.33 1.32 0.66 2 1 C2 1.99 2 2.98 2 4 C4.31 4 6.62 4 9 4 C9 4.33 9 4.66 9 5 C5.37 5 1.74 5 -2 5 C-1 1 -1 1 0 0 Z " fill="#B1A9D4" transform="translate(154,177)"/>
<path d="M0 0 C0.99 0.33 1.98 0.66 3 1 C1.25 4.875 1.25 4.875 -1 6 C-1 5.34 -1 4.68 -1 4 C-1.66 3.67 -2.32 3.34 -3 3 C-2.01 2.01 -1.02 1.02 0 0 Z " fill="#B6BCC6" transform="translate(186,130)"/>
<path d="M0 0 C0 3 0 3 -2 6 C-2 5.01 -2 4.02 -2 3 C-4.64 3 -7.28 3 -10 3 C-10 2.67 -10 2.34 -10 2 C-6.7 1.34 -3.4 0.68 0 0 Z " fill="#ADA0D7" transform="translate(73,185)"/>
</svg>
